<?xml version="1.0" standalone="no"?>
<!DOCTYPE svg PUBLIC "-//W3C//DTD SVG 20010904//EN"
 "http://www.w3.org/TR/2001/REC-SVG-20010904/DTD/svg10.dtd">
<svg version="1.0" xmlns="http://www.w3.org/2000/svg"
 width="1000.000000pt" height="1000.000000pt" viewBox="0 0 1000.000000 1000.000000"
 preserveAspectRatio="xMidYMid meet">
<metadata>
Created by potrace 1.14, written by Peter Selinger 2001-2017
</metadata>
<g transform="translate(0.000000,1000.000000) scale(0.100000,-0.100000)"
fill="#000000" stroke="none">
<path d="M3279 7556 c-2 -2 -85 -6 -184 -10 -99 -3 -196 -8 -215 -10 -19 -2
-66 -7 -105 -10 -115 -11 -148 -15 -175 -21 -14 -3 -43 -7 -65 -11 -22 -3 -48
-7 -57 -10 -10 -3 -30 -7 -45 -10 -103 -18 -227 -61 -358 -124 -412 -198 -751
-550 -939 -973 -46 -103 -106 -329 -121 -452 -2 -16 -8 -68 -14 -115 -5 -47
-13 -122 -16 -167 -3 -46 -8 -120 -12 -165 -3 -46 -7 -767 -9 -1603 -3 -993
-8 -1543 -15 -1585 -23 -146 -97 -318 -224 -527 l-64 -104 137 5 c175 8 244
13 367 32 136 20 141 21 238 49 327 94 489 269 586 633 l12 42 2442 0 c2378 0
2641 2 2824 15 309 23 653 149 938 344 28 19 52 37 55 41 3 3 15 13 28 22 18
13 97 80 182 158 56 52 193 221 254 315 90 139 88 136 131 225 111 225 175
463 193 705 17 238 7 1506 -13 1620 -3 17 -8 46 -11 65 -11 66 -15 82 -28 133
-79 299 -229 581 -430 811 -44 50 -89 99 -100 109 -12 10 -41 37 -66 60 -275
255 -708 458 -1049 492 -35 3 -78 9 -95 13 -32 6 -3970 14 -3977 8z"/>
</g>
</svg>
